<svg xmlns="http://www.w3.org/2000/svg" viewBox="-128 -128 256 256" fill="none" stroke="#efedf6"><path stroke="#b087fd" stroke-width="12" d="M64,0 C50,7 27,-2 19,11 C11,24 31,40 32,55 C33,75 20,106 0,106 C-20,106 -33,75 -32,55 C-31,40 -11,24 -19,11 C-27,-2 -50,7 -64,0 C-82,-9 -102,-36 -92,-53 C-82,-70 -49,-66 -32,-55 C-19,-47 -15,-22 -0,-22 C15,-22 19,-47 32,-55 C49,-66 82,-70 92,-53 C102,-36 82,-9 64,-0 Z"></path><path stroke="#b087fd" stroke-width="12" d="M64,0 C82,9 102,36 92,53 C82,70 49,66 32,55 C19,47 15,22 0,22 C-15,22 -19,47 -32,55 C-49,66 -82,70 -92,53 C-102,36 -82,9 -64,0 C-50,-7 -27,2 -19,-11 C-11,-24 -31,-40 -32,-55 C-33,-75 -20,-106 -0,-106 C20,-106 33,-75 32,-55 C31,-40 11,-24 19,-11 C27,2 50,-7 64,-0 Z"></path><circle r="4" stroke="#b087fd" stroke-width="8"></circle></svg>